<svg width="179" height="50" viewBox="0 0 179 50" fill="none" xmlns="http://www.w3.org/2000/svg">
<g clip-path="url(#clip0_6396_8912)">
<path d="M66.3167 39.4163C65.5146 38.8655 64.827 39.2991 64.2426 39.85C63.8644 40.2836 63.3602 41.1978 62.2257 41.1861C61.3318 41.1861 60.6671 40.2719 60.6786 38.9827C60.6786 38.4318 60.7817 37.752 60.9536 36.7675L61.5495 33.6264L62.707 27.7778L63.257 27.2972C70.9121 20.9798 73.8801 9.79841 74.052 5.579C74.1895 2.32068 72.4362 0.117206 69.5484 0.117206C66.0188 0.117206 63.7039 3.49273 62.0996 12.2949L60.6901 20.0891L60.5755 20.6517L59.9108 24.0506L59.4982 26.0666L59.4753 26.1955C56.5187 28.7271 53.1038 30.0985 49.5513 30.0867C46.7322 30.0867 44.9101 28.8912 44.3027 26.7464C45.5518 27.0511 48.1073 27.5903 50.1013 27.309C54.2497 26.7112 57.0573 24.8359 57.0688 21.0619C57.0688 17.2879 54.1351 14.932 49.6773 14.9203C44.0162 14.9086 39.7303 19.3507 39.7189 25.0469C39.7189 25.2696 39.7189 25.4923 39.7418 25.715C36.6935 28.4693 33.1296 29.9578 29.4166 29.9461C26.5975 29.9461 24.7755 28.7506 24.1681 26.6057C25.4172 26.9105 27.9727 27.4496 29.9667 27.1683C34.1151 26.5706 36.9227 24.6953 36.9342 20.9212C36.9342 17.1472 34.0005 14.8851 29.5427 14.8734C24.0764 14.8734 19.8936 18.917 19.5957 24.3202C19.5957 24.3202 19.5957 24.4257 19.5957 24.6132C18.0372 26.2072 16.8568 26.512 15.814 26.512C13.8086 26.512 12.2615 25.4102 9.5341 22.1871C17.2121 15.3305 20.7417 10.0211 20.9365 5.66104C21.0511 2.28551 19.0571 0 15.7223 0C11.6656 0 9.00696 3.49273 7.16195 12.5996L5.54614 19.7961L5.42008 20.3704L0.584105 24.3554C-0.0920153 24.9062 -0.206612 25.9142 0.331992 26.6174C0.859137 27.309 1.83321 27.4379 2.50933 26.887L4.35434 25.3633L3.43756 30.4618C2.74998 33.5443 2.41765 36.0994 2.41765 38.2325C2.40619 42.9208 4.04492 45.0188 7.32239 45.0188C11.2874 45.0188 13.7627 41.948 13.9117 35.8767C13.969 33.6029 13.694 31.2822 13.0178 29.0436C13.8429 29.3718 14.7024 29.5241 15.6192 29.5241C17.533 29.5241 18.8737 28.8561 20.0082 27.8481C21.1542 31.5518 24.5119 33.7787 28.9353 33.7904C33.1181 33.7904 37.2207 32.1613 40.544 29.0319C41.9535 32.1378 45.082 33.8256 49.0814 33.8373C52.3933 33.8373 55.6478 32.9348 58.5013 30.9541L57.9627 33.5912L57.3668 36.4276C57.149 37.5293 57.0459 38.5256 57.0344 39.3812C57.0344 43.1435 58.8909 45.1125 61.6068 45.1242C63.8988 45.1242 65.7667 43.7764 66.6262 41.8659C67.2106 40.4477 67.0043 39.8969 66.3167 39.3929V39.4163ZM65.5604 12.8575C66.8439 6.30567 67.7607 4.19597 69.0785 4.19597C69.6744 4.19597 70.1443 4.8406 70.0984 5.98922C69.9724 8.74355 66.97 17.6864 63.7383 21.894L65.5604 12.8575ZM49.5627 19.0459C51.3619 19.0459 52.6912 19.8547 52.6798 21.2025C52.6683 22.5504 51.5911 22.9958 50.0096 23.3005C48.0157 23.6873 44.4975 22.7731 44.4632 22.7262C45.2653 20.5696 47.1676 19.0342 49.5627 19.0459ZM29.4281 18.8936C31.2273 18.8936 32.5566 19.714 32.5451 21.0502C32.5451 22.3863 31.4564 22.8434 29.875 23.1481C27.881 23.5349 25.1995 22.7379 24.4661 22.5973C24.4202 22.5973 24.3744 22.5973 24.3285 22.5856C25.0963 20.3587 26.9872 18.8936 29.4395 18.8936H29.4281ZM11.1843 13.1739C12.6626 6.39944 13.7169 4.21941 15.2181 4.21941C15.9057 4.21941 16.4443 4.88748 16.3984 6.07126C16.2609 8.91936 13.9232 13.2208 10.2102 17.5809L11.1728 13.1739H11.1843ZM9.85498 35.4548C9.79768 39.0178 9.15594 41.0455 7.7464 41.0455C6.87546 41.0455 6.52021 40.3305 6.52021 38.5724C6.52021 36.9198 6.89838 34.3999 7.58596 30.6493L8.42252 26.383C9.55702 28.8912 10.004 32.2199 9.85498 35.443V35.4548Z" fill="white"/>
<path d="M158.636 21.7301C159.438 17.9326 157.41 15.272 153.101 15.272H147.749C145.824 15.2603 145.858 16.8074 145.652 17.9443C145.526 18.7531 143.337 29.0203 142.73 31.6809C142.478 32.7357 142.26 34.0953 143.75 34.0953H145.343C146.431 34.0953 146.821 33.6265 147.027 32.1966C147.165 31.2589 147.829 28.4343 147.967 27.8248H150.236L151.829 32.1497C152.218 33.4741 152.86 34.1187 154.43 34.1187C156.057 34.1187 157.249 33.5444 157.238 30.8604C156.516 30.8604 156.012 30.8253 155.633 30.0283L154.132 27.0278C156.229 26.1722 158.074 24.3203 158.636 21.7535V21.7301ZM154.396 21.8356C153.96 23.7695 152.7 24.7657 150.706 24.7657H148.437C148.735 23.4413 149.399 20.0892 149.743 18.6476H152.035C154.27 18.6476 154.751 20.2416 154.396 21.8473V21.8356Z" fill="white"/>
<path d="M87.2883 28.5278C87.93 24.5194 84.3432 24.0623 84.3432 24.0623L84.389 23.8982C84.389 23.8982 87.4487 23.3004 88.1249 20.0773C88.7437 17.2292 87.1966 15.1195 82.7274 15.1077H77.7768C75.7484 15.096 75.9088 16.3736 75.7026 17.4987C75.5307 18.2723 73.3648 28.856 72.7001 31.5048C72.4824 32.5597 72.2532 33.9193 73.8232 33.9193H79.3926C84.1025 33.9427 86.807 31.7041 87.2883 28.5161V28.5278ZM79.8624 18.3543H81.7533C83.4837 18.3543 84.2744 19.081 84.114 20.3C83.9421 21.9291 82.8305 22.7847 80.7334 22.7847H78.8425L79.8624 18.3543ZM77.1465 30.6141L78.3039 25.4922H80.5156C82.4065 25.4922 83.266 26.3595 83.0826 27.7777C82.8305 29.7702 81.4783 30.6258 79.3697 30.6258H77.135L77.1465 30.6141Z" fill="white"/>
<path d="M130.503 34.0601L139.51 34.0835C140.633 34.0835 140.828 33.896 141.012 33.0052L141.298 31.4816C141.481 30.5439 141.183 30.0985 140.244 30.1454C139.419 30.204 136.061 30.2157 134.193 30.2157C134.434 29.0202 134.663 27.8013 134.984 26.3362C136.749 26.3128 139.384 26.3362 140.129 26.3362C140.851 26.3128 141.126 26.1721 141.31 25.2814L141.573 24.039C141.745 23.2303 141.298 22.9372 140.702 22.9607C140.083 22.9841 137.367 22.9841 135.671 22.9724L136.508 19.0929C138.8 19.0929 141.115 19.0929 142.444 19.1281C143.349 19.1632 143.888 18.7764 144.071 17.8271L144.278 16.655C144.461 15.7642 144.404 15.2134 143.281 15.2134L134.25 15.1899C132.302 15.1899 132.52 16.7605 132.314 17.8974C132.165 18.671 130.102 28.9382 129.472 31.5988C129.242 32.6536 129.025 34.0132 130.492 34.0132L130.503 34.0601Z" fill="white"/>
<path d="M102.644 17.7568L102.851 16.5964C103.034 15.7057 102.977 15.1548 101.854 15.1548L92.8234 15.1313C90.8753 15.1313 91.093 16.7019 90.8867 17.8388C90.7378 18.6124 88.675 28.8796 88.0447 31.5402C87.827 32.595 87.5978 33.9546 89.0646 33.9546L98.0719 33.978C99.195 33.978 99.4013 33.7905 99.5732 32.8997L99.8711 31.3761C100.054 30.4384 99.7565 29.993 98.8168 30.0399C97.9917 30.0985 94.634 30.1103 92.7661 30.1103C93.0068 28.9148 93.236 27.6958 93.5568 26.2307C95.3216 26.2073 97.9573 26.2307 98.7022 26.2307C99.4242 26.2073 99.6992 26.0666 99.8826 25.1759L100.146 23.9335C100.318 23.1248 99.8711 22.8318 99.2752 22.8552C98.6564 22.8787 95.9404 22.8787 94.2444 22.8669L95.081 18.9874C97.3729 18.9874 99.6878 18.9874 101.017 19.0226C101.922 19.0577 102.461 18.671 102.644 17.7216V17.7568Z" fill="white"/>
<path d="M131.282 18.0496L131.592 16.608C131.809 15.6938 131.637 15.1078 130.709 15.1664C128.887 15.2953 105.658 15.1664 105.658 15.1664C104.535 15.1664 104.329 15.3539 104.157 16.2447L103.836 17.7683C103.653 18.706 103.79 19.1865 104.753 19.0928C105.188 19.0342 107.629 19.0459 108.432 19.0459C107.813 22.1987 105.91 30.6141 105.658 31.6104C105.406 32.6652 105.211 33.9896 106.678 33.9896H108.328C110.277 33.9896 109.99 32.4191 110.219 31.2822C110.357 30.6141 111.927 22.8902 112.843 19.0693C112.843 19.0693 120.819 19.0693 121.622 19.0693C121.003 22.2222 119.1 30.6375 118.848 31.6338C118.596 32.6886 118.401 34.0131 119.868 34.0131H121.518C123.467 34.0131 123.18 32.4425 123.409 31.3056C123.547 30.6375 125.117 22.9137 126.034 19.0928H129.769C130.892 19.0928 131.087 18.9052 131.271 18.0262L131.282 18.0496Z" fill="white"/>
<path d="M178.714 14.9085C178.175 14.0295 177.052 13.7716 176.216 14.3342L173.97 15.8227L174.233 14.5452L174.772 11.8729L175.368 9.03652C175.585 7.93478 175.688 6.93853 175.7 6.08293C175.7 2.32062 173.855 0.351564 171.128 0.339844C168.836 0.339844 166.968 1.68771 166.108 3.59817C165.524 5.01636 165.73 5.56722 166.418 6.07121C167.22 6.6338 167.907 6.20014 168.492 5.64927C168.87 5.21561 169.374 4.3014 170.509 4.31312C171.403 4.31312 172.067 5.22733 172.056 6.51659C172.056 7.06746 171.953 7.74725 171.781 8.73178L171.185 11.8729L170.027 17.7215L169.477 18.202C161.822 24.5194 158.854 35.7008 158.682 39.9202C158.545 43.1786 160.298 45.382 163.186 45.382C166.716 45.382 169.03 42.0065 170.635 33.2044L172.044 25.4102L172.159 24.8476L172.824 21.4486L172.915 20.9798C172.915 20.9798 172.973 20.9563 172.995 20.9329L178.152 17.5105C179 16.9479 179.241 15.7876 178.702 14.9085H178.714ZM167.162 32.6183C165.879 39.1701 164.962 41.2798 163.644 41.2798C163.048 41.2798 162.579 40.6352 162.624 39.4866C162.751 36.7323 165.753 27.7894 168.985 23.5818L167.162 32.6183Z" fill="white"/>
</g>
<defs>
<clipPath id="clip0_6396_8912">
<rect width="179" height="50" fill="white"/>
</clipPath>
</defs>
</svg>
