<?xml version="1.0" encoding="UTF-8"?>
<svg id="Livello_1" data-name="Livello 1" xmlns="http://www.w3.org/2000/svg" viewBox="0 0 200 200">
  <defs>
    <style>
      .cls-1 {
        fill: none;
        stroke: #231f20;
        stroke-linecap: round;
        stroke-linejoin: round;
        stroke-width: 3px;
      }
    </style>
  </defs>
  <path class="cls-1" d="M166.8,153.9c12.31,4.48,3.29,8.05-6.88,8.7-10.67.68-11.22,1.26-7.84,2.56s2.18,6.96-22.82,8.7c-25,1.74-30.77-1.75-33.87-3.97s-6.1-2.8-23.42-2.73c-17.32.06-20.85-5.2-14.57-7.53,6.28-2.34,18.44-2.36,15.13-7.38-3.31-5.02-16.65-6.43-16.71-8.95s3.95-2.29,8.58-.44,2.62-3.29-3.03-5.85c-5.66-2.56-13.6-5.1-12.69-8.49,1.06-3.97,21.54-.34,27.1,4.74,5.56,5.08.34,6.26,5.59,17.23,2.03,4.23,24.6,7.63,20.96,6.13-13.59-5.63-18.32-12.07-18.26-16.21s10.45,6,18.7,9.82c22.08,10.21,48.68-1.91,64.02,3.67Z"/>
  <path class="cls-1" d="M160.49,51.02c-4.96,1.7-12.68,1.99-19.25,1.42-20.81-1.81-26.12-2.18-43.29-.56-59.23,5.59-51.84-6.98-48.91-7.49,5.88-1.03,8.53-3.48,9.9-4.1s2.36.11,3.18.48,1.93.46,6.34-1.92,7.4-5.04,9.01-5.05,3.07,2.7,5.13,4.63c2.06,1.93,4.45,3.76,6.32,2.51s4.25-1.32,7.76,2.09,5.52,5.05,6.57,5.14,1.2-2.63,2.87-2.52,1.86-.22,3.31-2.3,2.87-3.8,3.62-3.29,9.67.39,13.03-2.89,4.54-4.33,5.8-5.05,5.2,2.93,9.03,6.42c8.65,7.89-3.03,9.78-7.39,11.57-7.7,3.17-14.34,8.88-16.29,16.98-2.58,10.72-8.44,41.55-6.41,54.48,1.06,6.77-4.93,12.15-5.32,1.01-1.57-44.45,19.92-80.66,6.7-66.55-11.25,12-11.14,60.69-11.57,69.94-.3,6.39-5.52,3.46-5.22-12.16,1.2-63.73,14.68-60.63,6.01-59.19-13.29,2.2-13.28,54.96-11,71.2,1.98,14.12-7.54.98-7.59-9.86-.13-29.07,6.59-42.82,3.57-40.75-11.46,7.85-8.33,61.6-16.21,49.79-1.71-2.56-1.15-23.24,1.58-38.92,2.63-15.18,8.86-29.7,14.74-31.22,8.28-2.15-1.21,6.51-7.48,23.39-2.91,7.84-9.23,30.93-1.66,47.18s47.23,28.49,29.37,17.63c-9.85-5.99-9.1-8.93-9.55-10.52-.98-3.51,5.51-2.04,7.31,1.48,1.79,3.49,8.56,3.97,7.83-.52-2.67-16.55,14.12-14,19.08-13.56s4.23,3.85-3.12,7.55c-7.35,3.71-10.65,9.48-11.38,12.54-.74,3.06,4.3.07,8.03-2.41s7.07.46.09,4.4c-6.98,3.94-9.35,8.81,1.32,11.29,10.68,2.47,16.68,4.22-1.85,5.27s-37.4.12-41.41-.05-6.5,2.44,5.47,4.02c11.97,1.58,15.98,1.95,11.07,3.68s4.07,3.22,21.24,3.11c14.32-.09,25.18-3.25,24.96-5.19"/>
</svg>